HIERARCHY
ROOT Hips
{
	OFFSET 0.000000 0.000000 0.000000
	CHANNELS 6 Xposition Yposition Zposition Zrotation Yrotation Xrotation 
	JOINT LHipJoint
	{
		OFFSET 0.000000 0.000000 0.000000
		CHANNELS 3 Zrotation Yrotation Xrotation
		JOINT LeftUpLeg
		{
			OFFSET 1.363060 -1.794630 0.839290
			CHANNELS 3 Zrotation Yrotation Xrotation
			JOINT LeftLeg
			{
				OFFSET 2.448110 -6.726130 0.000000
				CHANNELS 3 Zrotation Yrotation Xrotation
				JOINT LeftFoot
				{
					OFFSET 2.562200 -7.039590 0.000000
					CHANNELS 3 Zrotation Yrotation Xrotation
					JOINT LeftToeBase
					{
						OFFSET 0.157640 -0.433110 2.322550
						CHANNELS 3 Zrotation Yrotation Xrotation
						End Site
						{
							OFFSET 0.000000 0.000000 0.000000
						}
					}
				}
			}
		}
	}
	JOINT RHipJoint
	{
		OFFSET 0.000000 0.000000 0.000000
		CHANNELS 3 Zrotation Yrotation Xrotation
		JOINT RightUpLeg
		{
			OFFSET -1.305520 -1.794630 0.839290
			CHANNELS 3 Zrotation Yrotation Xrotation
			JOINT RightLeg
			{
				OFFSET -2.542530 -6.985550 0.000000
				CHANNELS 3 Zrotation Yrotation Xrotation
				JOINT RightFoot
				{
					OFFSET -2.568260 -7.056230 0.000000
					CHANNELS 3 Zrotation Yrotation Xrotation
					JOINT RightToeBase
					{
						OFFSET -0.164730 -0.452590 2.363150
						CHANNELS 3 Zrotation Yrotation Xrotation
						End Site
						{
							OFFSET 0.000000 0.000000 0.000000
						}
					}
				}
			}
		}
	}
	JOINT LowerBack
	{
		OFFSET 0.000000 0.000000 0.000000
		CHANNELS 3 Zrotation Yrotation Xrotation
		JOINT Spine
		{
			OFFSET 0.028270 2.035590 -0.193380
			CHANNELS 3 Zrotation Yrotation Xrotation
			JOINT Spine1
			{
				OFFSET 0.056720 2.048850 -0.042750
				CHANNELS 3 Zrotation Yrotation Xrotation
				JOINT Neck
				{
					OFFSET 0.000000 0.000000 0.000000
					CHANNELS 3 Zrotation Yrotation Xrotation
					JOINT Neck1
					{
						OFFSET -0.054170 1.746240 0.172020
						CHANNELS 3 Zrotation Yrotation Xrotation
						JOINT Head
						{
							OFFSET 0.104070 1.761360 -0.123970
							CHANNELS 3 Zrotation Yrotation Xrotation
							End Site
							{
								OFFSET 0.000000 0.000000 0.000000
							}
						}
					}
				}
				JOINT LeftShoulder
				{
					OFFSET 0.000000 0.000000 0.000000
					CHANNELS 3 Zrotation Yrotation Xrotation
					JOINT LeftArm
					{
						OFFSET 3.362410 1.200890 -0.311210
						CHANNELS 3 Zrotation Yrotation Xrotation
						JOINT LeftForeArm
						{
							OFFSET 4.983000 -0.000000 -0.000000
							CHANNELS 3 Zrotation Yrotation Xrotation
							JOINT LeftHand
							{
								OFFSET 3.483560 -0.000000 -0.000000
								CHANNELS 3 Zrotation Yrotation Xrotation
								JOINT LeftFingerBase
								{
									OFFSET 0.000000 0.000000 0.000000
									CHANNELS 3 Zrotation Yrotation Xrotation
									JOINT LeftHandIndex1
									{
										OFFSET 0.715260 -0.000000 -0.000000
										CHANNELS 3 Zrotation Yrotation Xrotation
										End Site
										{
											OFFSET 0.000000 0.000000 0.000000
										}
									}
								}
								JOINT LThumb
								{
									OFFSET 0.000000 0.000000 0.000000
									CHANNELS 3 Zrotation Yrotation Xrotation
									End Site
									{
										OFFSET 0.000000 0.000000 0.000000
									}
								}
							}
						}
					}
				}
				JOINT RightShoulder
				{
					OFFSET 0.000000 0.000000 0.000000
					CHANNELS 3 Zrotation Yrotation Xrotation
					JOINT RightArm
					{
						OFFSET -3.136600 1.374050 -0.404650
						CHANNELS 3 Zrotation Yrotation Xrotation
						JOINT RightForeArm
						{
							OFFSET -5.241900 -0.000000 -0.000000
							CHANNELS 3 Zrotation Yrotation Xrotation
							JOINT RightHand
							{
								OFFSET -3.444170 -0.000000 -0.000000
								CHANNELS 3 Zrotation Yrotation Xrotation
								JOINT RightFingerBase
								{
									OFFSET 0.000000 0.000000 0.000000
									CHANNELS 3 Zrotation Yrotation Xrotation
									JOINT RightHandIndex1
									{
										OFFSET -0.622530 -0.000000 -0.000000
										CHANNELS 3 Zrotation Yrotation Xrotation
										End Site
										{
											OFFSET 0.000000 0.000000 0.000000
										}
									}
								}
								JOINT RThumb
								{
									OFFSET 0.000000 0.000000 0.000000
									CHANNELS 3 Zrotation Yrotation Xrotation
									End Site
									{
										OFFSET 0.000000 0.000000 0.000000
									}
								}
							}
						}
					}
				}
			}
		}
	}
}
MOTION
Frames: 5
Frame Time: 0.008333
-7.301902 17.857628 0.317400 -77.327393 89.909900 -61.862445 -2.553533 -1.080853 0.003086 -5.728594 -2.738841 -27.508062 0.213638 8.541487 24.010549 1.098050 -4.019750 2.319136 0.998600 -6.359300 -17.830500 4.618726 1.468838 0.088878 2.765008 4.889769 -28.516494 -2.295578 -9.650603 28.287941 1.266631 -7.798370 -3.542176 -0.146900 2.469900 -6.806300 -3.882191 1.597223 2.874235 3.572079 2.102896 4.665944 5.451067 0.995591 0.327517 0.305792 -2.046187 -13.600554 0.487570 -0.550729 29.652730 -1.639300 0.755800 15.467800 0.370533 5.606907 -1.735856 -106.461054 -19.242461 84.155660 13.520766 -24.011083 -1.635642 -0.225442 1.418490 -41.573684 37.175635 66.190443 33.948700 -7.125000 0.000000 0.000000 171.262100 10.480900 7.087800 0.481849 -4.448568 -1.266922 104.284677 21.338551 37.332417 -10.241417 19.792276 -1.678451 -0.353979 -0.107580 -35.760928 -16.748244 -5.059455 1.526000 7.125000 0.000000 0.000000 8.550400 -35.286500 2.059100 
-7.297283 17.856925 0.320010 -78.014170 89.998508 -62.528176 -2.563424 -1.080691 0.004802 -5.849379 -2.688546 -27.580025 0.198055 8.525606 23.950392 1.085611 -3.955222 2.304413 1.156800 -6.828600 -19.208700 4.611574 1.475952 0.085676 2.680906 4.868110 -28.553464 -2.310429 -9.667151 28.356826 1.266983 -7.798301 -3.582405 -0.141900 2.427500 -6.688600 -3.994830 1.574288 2.809914 3.592961 2.070019 4.700305 5.527412 0.980013 0.385408 0.234297 -2.036898 -13.558120 0.492794 -0.526911 29.577382 -1.622500 0.752700 15.423900 0.371078 5.610220 -1.729502 -106.564288 -19.185303 83.787302 13.457238 -23.910811 -1.617307 -0.173043 1.395092 -41.103486 32.752631 65.278995 29.473100 -7.125000 0.000000 0.000000 170.609100 8.653900 7.981900 0.481055 -4.449237 -1.270383 104.308769 21.421845 37.278726 -10.206593 19.737769 -1.667372 -0.354815 -0.106148 -35.635049 -16.752150 -5.058527 1.526300 7.125000 0.000000 0.000000 8.547200 -35.286700 2.058300 
-7.292061 17.856323 0.323324 100.856811 89.962883 116.333190 -2.571940 -1.066369 0.016552 -5.879448 -2.664881 -27.580682 0.197381 8.532971 23.957909 1.094318 -3.996456 2.227438 1.228000 -7.028200 -19.798800 4.606002 1.485283 0.081498 2.642360 4.904266 -28.508021 -2.316327 -9.670245 28.381366 1.280546 -7.863532 -3.654654 -0.139600 2.407700 -6.633700 -4.070841 1.571453 2.762192 3.621057 2.063733 4.747702 5.581648 0.980045 0.434596 0.233877 -2.049337 -13.523660 0.437178 -0.544456 29.512326 -1.650300 0.735200 15.387600 0.370063 5.608347 -1.733777 -106.528941 -19.217147 84.090210 13.529754 -24.027371 -1.651849 -0.169601 1.392664 -41.032640 32.547521 65.235587 29.268300 -7.125000 0.000000 0.000000 170.575900 8.570000 8.026800 0.479109 -4.449552 -1.271724 104.327765 21.493948 36.956515 -10.176223 19.703611 -1.664772 -0.343766 -0.107515 -35.698051 -16.335050 -4.914101 1.442600 7.125000 0.000000 0.000000 8.863300 -35.110000 2.174500 
-7.287342 17.855218 0.325834 98.631036 89.955923 114.081227 -2.585334 -1.038907 0.035336 -5.879517 -2.636294 -27.567407 0.189974 8.533953 23.932548 1.101012 -4.030264 2.312933 1.152300 -6.815600 -19.170200 4.596253 1.507166 0.069886 2.655714 4.929716 -28.443938 -2.326357 -9.673617 28.421746 1.295396 -7.932637 -3.727545 -0.142600 2.433500 -6.705300 -4.084036 1.589082 2.804800 3.624491 2.082880 4.745646 5.581681 0.997369 0.406754 0.297193 -2.071224 -13.556938 0.352098 -0.569275 29.572739 -1.699900 0.725900 15.425800 0.369418 5.612326 -1.739939 -106.371849 -19.260774 84.809186 13.670524 -24.258108 -1.719377 -0.169274 1.393081 -41.025169 32.745723 65.195102 29.449600 -7.125000 0.000000 0.000000 170.637800 8.576000 7.971400 0.477997 -4.446272 -1.268437 104.354829 21.538543 36.283255 -10.137266 19.661494 -1.662323 -0.329314 -0.115934 -35.668707 -15.669392 -4.948125 1.384900 7.125000 0.000000 0.000000 9.406900 -35.096600 2.313900 
-7.283125 17.855218 0.326738 96.498303 89.929800 111.938478 -2.598648 -1.013609 0.048562 -5.883088 -2.703960 -27.538972 0.183181 8.539633 23.918963 1.093790 -3.991247 2.351266 1.092300 -6.641700 -18.658200 4.586489 1.532136 0.058062 2.663047 4.865833 -28.427138 -2.334243 -9.672856 28.448967 1.295430 -7.927044 -3.747558 -0.152300 2.514600 -6.930100 -4.097675 1.613306 2.887052 3.624234 2.110539 4.702243 5.578696 1.019092 0.336677 0.332244 -2.085668 -13.607619 0.301652 -0.570000 29.692501 -1.724800 0.730600 15.495200 0.367079 5.622345 -1.738759 -106.362710 -19.197903 84.999745 13.716918 -24.335525 -1.744276 -0.161841 1.395148 -40.847554 33.146224 65.078281 29.807300 -7.125000 0.000000 0.000000 170.773000 8.560700 7.856000 0.477864 -4.441457 -1.264130 104.384549 21.558429 35.694336 -10.104044 19.617712 -1.655958 -0.324475 -0.121094 -35.318944 -15.350325 -5.114293 1.396600 7.125000 0.000000 0.000000 9.690600 -35.241200 2.350700 
